<svg width="560" height="560" viewBox="0 0 560 560" fill="none" xmlns="http://www.w3.org/2000/svg">
<rect width="560" height="560" fill="black"/>
<path d="M341.965 80C418.172 80 480 141.828 480 218.069V341.966C480 418.173 418.172 480 341.931 480H218.068C141.827 480 80 418.172 80 341.931V218.069C80 141.828 141.827 80.0002 218.068 80H341.965ZM178.482 205.086C175.31 211.982 173.586 219.672 173.586 227.74V331.188C173.586 339.292 175.31 346.948 178.482 353.879C183.965 366.12 193.827 375.982 206.068 381.465C212.999 384.637 220.655 386.361 228.758 386.361H332.206C340.31 386.361 347.965 384.637 354.896 381.465L252.896 279.465L178.482 205.086ZM228.275 173.086C220.172 173.086 212.516 174.81 205.585 177.982L307.585 279.982L381.999 354.361C385.171 347.465 386.895 339.776 386.896 331.707V228.259C386.896 220.155 385.171 212.499 381.999 205.568C376.516 193.327 366.654 183.465 354.413 177.982C347.482 174.81 339.827 173.086 331.724 173.086H228.275Z" fill="white"/>
</svg>
